<?xml version="1.0" encoding="UTF-8"?>
<svg width="460px" height="100px" viewBox="0 0 460 100" version="1.1" xmlns="http://www.w3.org/2000/svg" xmlns:xlink="http://www.w3.org/1999/xlink">
    <!-- Generator: Sketch 49.3 (51167) - http://www.bohemiancoding.com/sketch -->
    <title>Artboard</title>
    <desc>Created with Sketch.</desc>
    <defs></defs>
    <g id="Artboard" stroke="none" stroke-width="1" fill="none" fill-rule="evenodd">
        <path d="M59.2999996,35.9 C59.5000006,35.366664 59.8166641,35.2166655 60.2499996,35.45 C60.6833351,35.6833345 60.8333336,36.033331 60.6999996,36.5 C59.0999916,40.50002 57.5666736,44.433314 56.0999996,48.3 C54.6333256,52.166686 53.2666726,55.833316 51.9999996,59.3 C55.0666816,58.899998 58.2999826,58.266671 61.6999996,57.4 C65.1000166,56.533329 68.4666496,55.4833395 71.7999996,54.25 C75.1333496,53.0166605 78.3333176,51.600008 81.3999996,50 C84.4666816,48.399992 87.1499881,46.6833425 89.4499996,44.85 C91.7500111,43.0166575 93.5999926,41.0833435 94.9999996,39.05 C96.4000066,37.0166565 97.0999996,34.933344 97.0999996,32.8 C97.0999996,28.999981 95.3166841,25.9166785 91.7499996,23.55 C88.1833151,21.1833215 82.5667046,20 74.8999996,20 C70.7666456,20 66.1000256,20.4833285 60.8999996,21.45 C55.6999736,22.4166715 50.4166931,23.7499915 45.0499996,25.45 C39.6833061,27.1500085 34.4500251,29.166655 29.3499996,31.5 C24.2499741,33.833345 19.7166861,36.366653 15.7499996,39.1 C11.7833131,41.833347 8.5833451,44.7166515 6.1499996,47.75 C3.7166541,50.7833485 2.4999996,53.833318 2.4999996,56.9 C2.4999996,58.166673 2.9333286,59.2166625 3.7999996,60.05 C4.6666706,60.8833375 5.7833261,61.533331 7.1499996,62 C8.5166731,62.466669 9.9999916,62.766666 11.5999996,62.9 C13.2000076,63.033334 14.6999926,63.033334 16.0999996,62.9 C16.6333356,62.833333 16.9333326,63.0166645 16.9999996,63.45 C17.0666666,63.8833355 16.8333356,64.166666 16.2999996,64.3 C14.6999916,64.433334 13.0166751,64.4166675 11.2499996,64.25 C9.4833241,64.0833325 7.8500071,63.7166695 6.3499996,63.15 C4.8499921,62.5833305 3.6000046,61.7833385 2.5999996,60.75 C1.5999946,59.7166615 1.0999996,58.433341 1.0999996,56.9 C1.0999996,53.699984 2.3333206,50.5166825 4.7999996,47.35 C7.2666786,44.1833175 10.5333126,41.1833475 14.5999996,38.35 C18.6666866,35.5166525 23.2999736,32.900012 28.4999996,30.5 C33.7000256,28.099988 39.0333056,26.0166755 44.4999996,24.25 C49.9666936,22.4833245 55.3499731,21.100005 60.6499996,20.1 C65.9500261,19.099995 70.6999786,18.6 74.8999996,18.6 C83.0333736,18.6 88.9999806,19.93332 92.7999996,22.6 C96.6000186,25.26668 98.4999996,28.666646 98.4999996,32.8 C98.4999996,35.133345 97.7666736,37.366656 96.2999996,39.5 C94.8333256,41.633344 92.8833451,43.6833235 90.4499996,45.65 C88.0166541,47.6166765 85.2000156,49.433325 81.9999996,51.1 C78.7999836,52.766675 75.4500171,54.2499935 71.9499996,55.55 C68.4499821,56.8500065 64.9333506,57.933329 61.3999996,58.8 C57.8666486,59.666671 54.5666816,60.299998 51.4999996,60.7 C49.8999916,65.233356 48.5833381,69.099984 47.5499996,72.3 C46.5166611,75.500016 45.9333336,77.699994 45.7999996,78.9 C45.6666656,79.433336 45.3666686,79.6500005 44.8999996,79.55 C44.4333306,79.4499995 44.2666656,79.166669 44.3999996,78.7 C44.5333336,77.433327 45.0833281,75.233349 46.0499996,72.1 C47.0166711,68.966651 48.2666586,65.233355 49.7999996,60.9 C49.0666626,61.033334 48.3500031,61.1 47.6499996,61.1 L45.5999996,61.1 C42.8666526,61.1 40.9833381,60.5166725 39.9499996,59.35 C38.9166611,58.1833275 38.3999996,56.833341 38.3999996,55.3 C38.3999996,54.166661 38.5833311,53.1166715 38.9499996,52.15 C39.3166681,51.1833285 39.7333306,50.36667 40.1999996,49.7 C40.5333346,49.299998 40.8833311,49.233332 41.2499996,49.5 C41.6166681,49.766668 41.6666676,50.099998 41.3999996,50.5 C40.9999976,51.033336 40.6333346,51.733329 40.2999996,52.6 C39.9666646,53.466671 39.7999996,54.366662 39.7999996,55.3 C39.7999996,56.433339 40.1999956,57.4499955 40.9999996,58.35 C41.8000036,59.2500045 43.3333216,59.7 45.5999996,59.7 L47.8999996,59.7 C48.7000036,59.7 49.5333286,59.633334 50.3999996,59.5 C51.6666726,55.899982 53.0499921,52.1166865 54.5499996,48.15 C56.0500071,44.1833135 57.6333246,40.100021 59.2999996,35.9 Z M88.7428568,69.6 C88.6095228,69.933335 88.3428588,70.0833335 87.9428568,70.05 C87.5428548,70.0166665 87.3428568,69.800002 87.3428568,69.4 C87.4095238,69.133332 87.3761908,68.833335 87.2428568,68.5 C87.1095228,68.166665 86.8095258,68 86.3428568,68 C85.8095208,68 85.2428598,68.1499985 84.6428568,68.45 C84.0428538,68.7500015 83.4761928,69.133331 82.9428568,69.6 C82.4095208,70.066669 81.9595253,70.5499975 81.5928568,71.05 C81.2261883,71.5500025 81.0428568,72.033331 81.0428568,72.5 C81.0428568,72.766668 81.1761888,72.8833335 81.4428568,72.85 C81.7095248,72.8166665 82.0595213,72.6833345 82.4928568,72.45 C82.9261923,72.2166655 83.4095208,71.9166685 83.9428568,71.55 C84.4761928,71.1833315 85.0095208,70.766669 85.5428568,70.3 C85.9428588,69.966665 86.2761888,69.833333 86.5428568,69.9 C86.8095248,69.966667 87.0761888,70.133332 87.3428568,70.4 C88.2761948,71.333338 89.3095178,71.966665 90.4428568,72.3 C91.5761958,72.633335 92.6095188,72.8 93.5428568,72.8 C95.2095318,72.8 97.0261803,72.433337 98.9928568,71.7 C100.959533,70.966663 102.776182,70.100005 104.442857,69.1 C104.976193,68.899999 105.326189,68.9833315 105.492857,69.35 C105.659524,69.7166685 105.576192,70.033332 105.242857,70.3 C103.509515,71.366672 101.576201,72.2833295 99.4428568,73.05 C97.3095128,73.8166705 95.3428658,74.2 93.5428568,74.2 C92.2095168,74.2 90.9261963,73.9833355 89.6928568,73.55 C88.4595173,73.1166645 87.3095288,72.433338 86.2428568,71.5 C84.5761818,73.100008 83.0595303,73.999999 81.6928568,74.2 C80.3261833,74.400001 79.6428568,73.83334 79.6428568,72.5 C79.6428568,71.899997 79.8595213,71.2500035 80.2928568,70.55 C80.7261923,69.8499965 81.2761868,69.2166695 81.9428568,68.65 C82.6095268,68.0833305 83.3428528,67.600002 84.1428568,67.2 C84.9428608,66.799998 85.6761868,66.6 86.3428568,66.6 C87.4095288,66.6 88.0928553,66.966663 88.3928568,67.7 C88.6928583,68.433337 88.8095238,69.066664 88.7428568,69.6 Z M105.885714,57.8 C106.019048,57.399998 106.319045,57.233333 106.785714,57.3 C107.252383,57.366667 107.419048,57.666664 107.285714,58.2 L106.985714,59.4 C112.18574,58.333328 117.402354,57.46667 122.635714,56.8 C127.869073,56.13333 133.419018,55.700001 139.285714,55.5 C139.81905,55.5 140.085714,55.7499975 140.085714,56.25 C140.085714,56.7500025 139.81905,56.966667 139.285714,56.9 C133.352351,57.166668 127.769073,57.63333 122.535714,58.3 C117.302354,58.96667 111.985741,59.833328 106.585714,60.9 C106.45238,61.833338 106.319048,62.7833285 106.185714,63.75 C106.05238,64.7166715 105.985714,65.666662 105.985714,66.6 C105.985714,67.866673 106.102379,69.099994 106.335714,70.3 C106.569048,71.500006 106.985711,72.5833285 107.585714,73.55 C108.185717,74.5166715 108.969042,75.33333 109.935714,76 C110.902385,76.66667 112.152373,77.099999 113.685714,77.3 C114.285717,77.366667 114.535714,77.633331 114.435714,78.1 C114.335713,78.566669 114.01905,78.766667 113.485714,78.7 C111.752372,78.499999 110.302386,78.0166705 109.135714,77.25 C107.969041,76.4833295 107.052384,75.5500055 106.385714,74.45 C105.719044,73.3499945 105.252382,72.1166735 104.985714,70.75 C104.719046,69.3833265 104.585714,68.000007 104.585714,66.6 C104.585714,64.866658 104.752379,63.066676 105.085714,61.2 C103.285705,61.600002 101.469056,61.999998 99.635714,62.4 C97.8023715,62.800002 95.919057,63.233331 93.985714,63.7 C93.452378,63.900001 93.119048,63.733336 92.985714,63.2 C92.85238,62.666664 93.052378,62.366667 93.585714,62.3 C95.652391,61.833331 97.652371,61.3833355 99.585714,60.95 C101.519057,60.5166645 103.452371,60.100002 105.385714,59.7 C105.519048,59.366665 105.60238,59.0500015 105.635714,58.75 C105.669047,58.4499985 105.75238,58.133335 105.885714,57.8 Z M151.628571,69.1 C152.028573,68.899999 152.345237,68.9833315 152.578571,69.35 C152.811906,69.7166685 152.761906,70.033332 152.428571,70.3 C151.028564,71.233338 149.378581,72.099996 147.478571,72.9 C145.578562,73.700004 143.595248,74.399997 141.528571,75 C139.461894,75.600003 137.395248,76.066665 135.328571,76.4 C133.261894,76.733335 131.32858,76.9 129.528571,76.9 C128.395232,76.9 127.411909,76.56667 126.578571,75.9 C125.745234,75.23333 125.328571,74.433338 125.328571,73.5 C125.328571,73.033331 125.411904,72.4833365 125.578571,71.85 C125.745239,71.2166635 125.92857,70.633336 126.128571,70.1 C124.661897,70.300001 123.461909,70.133336 122.528571,69.6 C121.595233,69.066664 121.128571,68.166673 121.128571,66.9 C121.128571,66.566665 121.361902,66.366667 121.828571,66.3 C122.29524,66.233333 122.528571,66.433331 122.528571,66.9 C122.528571,67.700004 122.928567,68.266665 123.728571,68.6 C124.528575,68.933335 125.595231,68.900002 126.928571,68.5 C127.328573,68.366666 127.62857,68.4833315 127.828571,68.85 C128.028572,69.2166685 127.995239,69.566665 127.728571,69.9 C127.395236,70.366669 127.145239,70.9499965 126.978571,71.65 C126.811904,72.3500035 126.728571,72.966664 126.728571,73.5 C126.728571,74.033336 127.011902,74.499998 127.578571,74.9 C128.145241,75.300002 128.795234,75.5 129.528571,75.5 C131.261913,75.5 133.128561,75.333335 135.128571,75 C137.128581,74.666665 139.128561,74.2166695 141.128571,73.65 C143.128581,73.0833305 145.028562,72.4166705 146.828571,71.65 C148.62858,70.8833295 150.228564,70.033338 151.628571,69.1 Z M156.571428,61.2 C156.171426,61.333334 155.904762,61.166669 155.771428,60.7 C155.638094,60.233331 155.771426,59.933334 156.171428,59.8 L159.071428,59.1 C159.604764,58.966666 159.921428,59.133331 160.021428,59.6 C160.121429,60.066669 159.938097,60.366666 159.471428,60.5 L156.571428,61.2 Z M151.871428,69.5 C152.004762,69.166665 152.288093,69.066666 152.721428,69.2 C153.154764,69.333334 153.338095,69.566665 153.271428,69.9 C152.871426,71.23334 153.004758,72.299996 153.671428,73.1 C154.338098,73.900004 155.304755,74.3 156.571428,74.3 C157.838101,74.3 159.238087,74.166668 160.771428,73.9 C162.304769,73.633332 163.854754,73.266669 165.421428,72.8 C166.988103,72.333331 168.538087,71.7833365 170.071428,71.15 C171.604769,70.5166635 173.004755,69.833337 174.271428,69.1 C174.67143,68.833332 175.00476,68.8833315 175.271428,69.25 C175.538096,69.6166685 175.47143,69.966665 175.071428,70.3 C173.738088,71.100004 172.271436,71.83333 170.671428,72.5 C169.07142,73.16667 167.45477,73.733331 165.821428,74.2 C164.188087,74.666669 162.571436,75.033332 160.971428,75.3 C159.37142,75.566668 157.904768,75.7 156.571428,75.7 C154.704752,75.7 153.304766,75.1500055 152.371428,74.05 C151.43809,72.9499945 151.271425,71.433343 151.871428,69.5 Z M180.514286,65.9 C181.047622,65.833333 181.330952,66.0499975 181.364286,66.55 C181.397619,67.0500025 181.180955,67.3 180.714286,67.3 C180.18095,67.366667 179.597622,67.5166655 178.964286,67.75 C178.330949,67.9833345 177.747622,68.299998 177.214286,68.7 C176.68095,69.100002 176.214288,69.5833305 175.814286,70.15 C175.414284,70.7166695 175.214286,71.366663 175.214286,72.1 C175.214286,73.100005 175.780947,73.8166645 176.914286,74.25 C178.047625,74.6833355 179.180947,74.9 180.314286,74.9 C183.514302,74.9 186.447606,74.333339 189.114286,73.2 C191.780966,72.066661 194.014277,70.733341 195.814286,69.2 C196.147621,68.933332 196.430951,68.966665 196.664286,69.3 C196.89762,69.633335 196.880954,69.933332 196.614286,70.2 C194.680943,71.800008 192.297633,73.2166605 189.464286,74.45 C186.630938,75.6833395 183.580969,76.3 180.314286,76.3 C179.580949,76.3 178.830956,76.2166675 178.064286,76.05 C177.297615,75.8833325 176.597622,75.633335 175.964286,75.3 C175.330949,74.966665 174.814288,74.533336 174.414286,74 C174.014284,73.466664 173.814286,72.833337 173.814286,72.1 C173.814286,71.166662 174.047617,70.3166705 174.514286,69.55 C174.980955,68.7833295 175.564282,68.1500025 176.264286,67.65 C176.964289,67.1499975 177.697615,66.7500015 178.464286,66.45 C179.230956,66.1499985 179.914283,65.966667 180.514286,65.9 Z M199.557143,58.5 C199.690477,58.033331 199.990474,57.8833325 200.457143,58.05 C200.923812,58.2166675 201.090477,58.499998 200.957143,58.9 L196.757143,72.7 C198.15715,71.033325 199.357138,69.8166705 200.357143,69.05 C201.357148,68.2833295 202.323805,67.666669 203.257143,67.2 C203.723812,66.999999 204.007142,67.1166645 204.107143,67.55 C204.207143,67.9833355 204.123811,68.266666 203.857143,68.4 C202.723804,69.000003 201.557149,69.833328 200.357143,70.9 C201.09048,71.433336 202.173802,71.899998 203.607143,72.3 C205.040483,72.700002 206.657134,72.9 208.457143,72.9 C209.390481,72.9 210.44047,72.833334 211.607143,72.7 C212.773815,72.566666 213.99047,72.3500015 215.257143,72.05 C216.523816,71.7499985 217.757137,71.366669 218.957143,70.9 C220.157149,70.433331 221.257138,69.833337 222.257143,69.1 C222.657145,68.766665 222.973808,68.833331 223.207143,69.3 C223.440477,69.766669 223.390478,70.099999 223.057143,70.3 C221.990471,71.033337 220.823816,71.666664 219.557143,72.2 C218.29047,72.733336 217.007149,73.1499985 215.707143,73.45 C214.407136,73.7500015 213.123816,73.966666 211.857143,74.1 C210.59047,74.233334 209.457148,74.3 208.457143,74.3 C206.457133,74.3 204.640484,74.066669 203.007143,73.6 C201.373801,73.133331 200.123814,72.56667 199.257143,71.9 C198.523806,72.633337 197.823813,73.433329 197.157143,74.3 C196.490473,75.166671 195.923812,76.066662 195.457143,77 C195.323809,77.266668 195.057145,77.333334 194.657143,77.2 C194.257141,77.066666 194.123809,76.833335 194.257143,76.5 L199.557143,58.5 Z M276.742857,34.4 C276.942858,34.066665 277.226189,33.966666 277.592857,34.1 C277.959526,34.233334 278.076191,34.533331 277.942857,35 C276.142848,39.200021 274.376199,43.466645 272.642857,47.8 C270.909515,52.133355 269.342864,56.199981 267.942857,60 C266.54285,63.800019 265.342862,67.199985 264.342857,70.2 C263.342852,73.200015 262.709525,75.499992 262.442857,77.1 C262.309523,77.500002 262.009526,77.666667 261.542857,77.6 C261.076188,77.533333 260.909523,77.300002 261.042857,76.9 C261.309525,75.366659 261.942852,73.100015 262.942857,70.1 C263.942862,67.099985 265.159517,63.666686 266.592857,59.8 C268.026198,55.933314 269.609515,51.8166885 271.342857,47.45 C273.076199,43.0833115 274.876181,38.733355 276.742857,34.4 Z M226.842857,56.5 C226.709523,56.966669 226.409526,57.1500005 225.942857,57.05 C225.476188,56.9499995 225.309523,56.633336 225.442857,56.1 C225.909526,54.166657 227.059515,52.0166785 228.892857,49.65 C230.7262,47.2833215 233.076176,44.866679 235.942857,42.4 C238.809538,39.933321 242.126172,37.533345 245.892857,35.2 C249.659543,32.866655 253.776168,30.800009 258.242857,29 C262.709546,27.199991 267.409499,25.7500055 272.342857,24.65 C277.276215,23.5499945 282.342831,23 287.542857,23 C289.342866,23 291.042849,23.199998 292.642857,23.6 C294.242865,24.000002 295.642851,24.5499965 296.842857,25.25 C298.042863,25.9500035 298.992854,26.7499955 299.692857,27.65 C300.392861,28.5500045 300.742857,29.533328 300.742857,30.6 C300.742857,32.066674 300.392861,33.6166585 299.692857,35.25 C298.992854,36.8833415 298.092863,38.533325 296.992857,40.2 C295.892852,41.866675 294.642864,43.5499915 293.242857,45.25 C291.84285,46.9500085 290.442864,48.599992 289.042857,50.2 C287.709517,51.666674 286.426197,53.1499925 285.192857,54.65 C283.959518,56.1500075 282.842862,57.6166595 281.842857,59.05 C280.842852,60.4833405 280.04286,61.86666 279.442857,63.2 C278.842854,64.53334 278.542857,65.766661 278.542857,66.9 C278.542857,67.900005 278.826188,68.999994 279.392857,70.2 C279.959527,71.400006 280.926184,72.533328 282.292857,73.6 C283.659531,74.666672 285.509512,75.5499965 287.842857,76.25 C290.176202,76.9500035 293.109506,77.3 296.642857,77.3 C300.842878,77.3 306.092826,76.700006 312.392857,75.5 C318.692889,74.299994 325.609486,72.166682 333.142857,69.1 C333.542859,68.899999 333.842856,68.999998 334.042857,69.4 C334.242858,69.800002 334.076193,70.166665 333.542857,70.5 C326.009486,73.633349 319.042889,75.7833275 312.642857,76.95 C306.242825,78.1166725 300.909545,78.7 296.642857,78.7 C292.776171,78.7 289.59287,78.300004 287.092857,77.5 C284.592845,76.699996 282.609531,75.700006 281.142857,74.5 C279.676183,73.299994 278.64286,72.0166735 278.042857,70.65 C277.442854,69.2833265 277.142857,68.033339 277.142857,66.9 C277.142857,65.56666 277.459521,64.200007 278.092857,62.8 C278.726194,61.399993 279.542852,59.9500075 280.542857,58.45 C281.542862,56.9499925 282.692851,55.433341 283.992857,53.9 C285.292864,52.366659 286.64285,50.800008 288.042857,49.2 C289.442864,47.599992 290.826184,45.9833415 292.192857,44.35 C293.559531,42.7166585 294.759519,41.1166745 295.792857,39.55 C296.826196,37.9833255 297.676187,36.4500075 298.342857,34.95 C299.009527,33.4499925 299.342857,32.000007 299.342857,30.6 C299.342857,28.866658 298.192869,27.400006 295.892857,26.2 C293.592846,24.999994 290.80954,24.4 287.542857,24.4 C282.476165,24.4 277.526215,24.933328 272.692857,26 C267.8595,27.066672 263.259546,28.4833245 258.892857,30.25 C254.526169,32.0166755 250.509542,34.033322 246.842857,36.3 C243.176172,38.566678 239.926205,40.8833215 237.092857,43.25 C234.25951,45.6166785 231.959533,47.9499885 230.192857,50.25 C228.426182,52.5500115 227.309526,54.633324 226.842857,56.5 Z M334.985714,68.1 C335.385716,67.966666 335.685713,68.133331 335.885714,68.6 C336.085715,69.066669 335.985716,69.366666 335.585714,69.5 C335.052378,69.700001 334.602383,70.0833305 334.235714,70.65 C333.869046,71.2166695 333.585715,71.799997 333.385714,72.4 C333.185713,73.000003 333.102381,73.533331 333.135714,74 C333.169048,74.466669 333.385712,74.7 333.785714,74.7 C334.31905,74.7 334.752379,74.300004 335.085714,73.5 C335.419049,72.699996 335.519048,71.833338 335.385714,70.9 C335.319047,70.433331 335.419046,70.133334 335.685714,70 C335.952382,69.866666 336.219046,69.833333 336.485714,69.9 C337.68572,70.166668 338.919041,70.3499995 340.185714,70.45 C341.452387,70.5500005 342.719041,70.6 343.985714,70.6 C348.185735,70.6 351.785699,70.066672 354.785714,69 C355.185716,68.866666 355.45238,69.0166645 355.585714,69.45 C355.719048,69.8833355 355.585716,70.199999 355.185714,70.4 C352.185699,71.466672 348.452403,72 343.985714,72 C342.652374,72 341.38572,71.966667 340.185714,71.9 C338.985708,71.833333 337.919052,71.733334 336.985714,71.6 C337.052381,72.533338 336.81905,73.5166615 336.285714,74.55 C335.752378,75.5833385 334.919053,76.1 333.785714,76.1 C332.852376,76.1 332.252382,75.733337 331.985714,75 C331.719046,74.266663 331.669047,73.4500045 331.835714,72.55 C332.002382,71.6499955 332.369045,70.766671 332.935714,69.9 C333.502384,69.033329 334.18571,68.433335 334.985714,68.1 Z M378.528572,69 C378.995241,68.866666 379.278571,69.033331 379.378572,69.5 C379.478572,69.966669 379.328574,70.266666 378.928572,70.4 C374.061881,71.666673 369.195263,73.033326 364.328572,74.5 C364.328572,76.633344 363.778577,79.1499855 362.678572,82.05 C361.578566,84.9500145 360.061915,87.73332 358.128572,90.4 C356.195229,93.06668 353.895252,95.333324 351.228572,97.2 C348.561892,99.066676 345.628588,100 342.428572,100 C340.495229,100 338.828579,99.300007 337.428572,97.9 C336.028565,96.499993 335.328572,94.833343 335.328572,92.9 C335.328572,90.633322 336.095231,88.566676 337.628572,86.7 C339.161913,84.833324 341.195226,83.100008 343.728572,81.5 C346.261918,79.899992 349.178555,78.4500065 352.478572,77.15 C355.778588,75.8499935 359.228554,74.633339 362.828572,73.5 C362.761905,72.633329 362.561907,71.900003 362.228572,71.3 C361.295234,71.900003 360.378576,72.466664 359.478572,73 C358.578567,73.533336 357.561911,73.8 356.428572,73.8 C355.628568,73.8 354.961908,73.600002 354.428572,73.2 C353.895236,72.799998 353.628572,72.233337 353.628572,71.5 C353.628572,70.566662 354.128567,69.700004 355.128572,68.9 C356.128577,68.099996 357.261899,67.7 358.528572,67.7 C359.261909,67.7 360.011901,67.8166655 360.778572,68.05 C361.545242,68.2833345 362.228569,68.73333 362.828572,69.4 C363.495242,69.066665 364.178568,68.800001 364.878572,68.6 C365.578575,68.399999 366.328568,68.366666 367.128572,68.5 C367.661908,68.633334 367.895239,68.9166645 367.828572,69.35 C367.761905,69.7833355 367.528574,69.966667 367.128572,69.9 C365.928566,69.699999 364.728578,69.93333 363.528572,70.6 C363.861907,71.133336 364.095238,71.933328 364.228572,73 C366.628584,72.266663 369.02856,71.56667 371.428572,70.9 C373.828584,70.23333 376.195227,69.600003 378.528572,69 Z M342.428572,98.6 C344.361915,98.6 346.211896,98.200004 347.978572,97.4 C349.745247,96.599996 351.378564,95.5500065 352.878572,94.25 C354.378579,92.9499935 355.728566,91.466675 356.928572,89.8 C358.128578,88.133325 359.178567,86.433342 360.078572,84.7 C360.978576,82.966658 361.661903,81.2500085 362.128572,79.55 C362.595241,77.8499915 362.861905,76.300007 362.928572,74.9 C359.461888,75.966672 356.145254,77.133327 352.978572,78.4 C349.811889,79.666673 347.028584,81.033326 344.628572,82.5 C342.22856,83.966674 340.311912,85.566658 338.878572,87.3 C337.445231,89.033342 336.728572,90.89999 336.728572,92.9 C336.728572,94.433341 337.295233,95.766661 338.428572,96.9 C339.561911,98.033339 340.895231,98.6 342.428572,98.6 Z M356.428572,72.4 C357.36191,72.4 358.245234,72.166669 359.078572,71.7 C359.911909,71.233331 360.728568,70.733336 361.528572,70.2 C361.061903,69.799998 360.578574,69.5166675 360.078572,69.35 C359.578569,69.1833325 359.061908,69.1 358.528572,69.1 C357.595234,69.1 356.778575,69.3499975 356.078572,69.85 C355.378568,70.3500025 355.028572,70.899997 355.028572,71.5 C355.028572,72.100003 355.495234,72.4 356.428572,72.4 Z M385.871429,65.8 C386.271431,65.8 386.471429,66.033331 386.471429,66.5 C386.471429,66.966669 386.271431,67.2 385.871429,67.2 C385.204759,67.2 384.521432,67.266666 383.821429,67.4 C383.121425,67.533334 382.471432,67.7166655 381.871429,67.95 C381.271426,68.1833345 380.788097,68.466665 380.421429,68.8 C380.05476,69.133335 379.871429,69.466665 379.871429,69.8 C379.871429,70.333336 380.10476,70.7166655 380.571429,70.95 C381.038098,71.1833345 381.538093,71.366666 382.071429,71.5 C382.404764,71.566667 382.554762,71.7833315 382.521429,72.15 C382.488095,72.5166685 382.304764,72.7 381.971429,72.7 C380.83809,72.833334 380.271429,73.133331 380.271429,73.6 C380.271429,74.333337 381.938079,74.7 385.271429,74.7 C386.604769,74.7 388.221419,74.5500015 390.121429,74.25 C392.021438,73.9499985 393.954752,73.5500025 395.921429,73.05 C397.888105,72.5499975 399.754753,71.96667 401.521429,71.3 C403.288104,70.63333 404.73809,69.900004 405.871429,69.1 C406.204764,68.899999 406.504761,68.966665 406.771429,69.3 C407.038097,69.633335 407.004764,69.966665 406.671429,70.3 C405.53809,71.100004 404.038105,71.8499965 402.171429,72.55 C400.304753,73.2500035 398.354772,73.866664 396.321429,74.4 C394.288085,74.933336 392.288105,75.3499985 390.321429,75.65 C388.354752,75.9500015 386.671436,76.1 385.271429,76.1 C383.338086,76.1 381.788101,75.9166685 380.621429,75.55 C379.454756,75.1833315 378.871429,74.533338 378.871429,73.6 C378.871429,73.266665 379.038094,72.966668 379.371429,72.7 C379.704764,72.433332 380.038094,72.233334 380.371429,72.1 C379.171423,71.766665 378.571429,71.000006 378.571429,69.8 C378.571429,69.266664 378.80476,68.7500025 379.271429,68.25 C379.738098,67.7499975 380.321425,67.3166685 381.021429,66.95 C381.721432,66.5833315 382.504758,66.300001 383.371429,66.1 C384.2381,65.899999 385.071425,65.8 385.871429,65.8 Z M435.314286,69.1 C435.714288,68.899999 436.030951,68.9833315 436.264286,69.35 C436.49762,69.7166685 436.447621,70.033332 436.114286,70.3 C434.714279,71.233338 433.064295,72.099996 431.164286,72.9 C429.264276,73.700004 427.280963,74.399997 425.214286,75 C423.147609,75.600003 421.080963,76.066665 419.014286,76.4 C416.947609,76.733335 415.014295,76.9 413.214286,76.9 C412.080947,76.9 411.097623,76.56667 410.264286,75.9 C409.430948,75.23333 409.014286,74.433338 409.014286,73.5 C409.014286,73.033331 409.097618,72.4833365 409.264286,71.85 C409.430953,71.2166635 409.614285,70.633336 409.814286,70.1 C408.347612,70.300001 407.147624,70.133336 406.214286,69.6 C405.280948,69.066664 404.814286,68.166673 404.814286,66.9 C404.814286,66.566665 405.047617,66.366667 405.514286,66.3 C405.980955,66.233333 406.214286,66.433331 406.214286,66.9 C406.214286,67.700004 406.614282,68.266665 407.414286,68.6 C408.21429,68.933335 409.280946,68.900002 410.614286,68.5 C411.014288,68.366666 411.314285,68.4833315 411.514286,68.85 C411.714287,69.2166685 411.680954,69.566665 411.414286,69.9 C411.080951,70.366669 410.830953,70.9499965 410.664286,71.65 C410.497618,72.3500035 410.414286,72.966664 410.414286,73.5 C410.414286,74.033336 410.697616,74.499998 411.264286,74.9 C411.830955,75.300002 412.480949,75.5 413.214286,75.5 C414.947628,75.5 416.814276,75.333335 418.814286,75 C420.814296,74.666665 422.814276,74.2166695 424.814286,73.65 C426.814296,73.0833305 428.714277,72.4166705 430.514286,71.65 C432.314295,70.8833295 433.914279,70.033338 435.314286,69.1 Z M435.957143,70.3 C435.690475,70.166666 435.640476,69.900002 435.807143,69.5 C435.973811,69.099998 436.223808,68.966666 436.557143,69.1 C437.690482,69.633336 438.923803,70.4499945 440.257143,71.55 C441.590483,72.6500055 442.657139,73.799994 443.457143,75 C445.590487,73.866661 448.00713,72.8166715 450.707143,71.85 C453.407157,70.8833285 455.923798,69.966671 458.257143,69.1 C458.723812,68.966666 459.023809,69.0833315 459.157143,69.45 C459.290477,69.8166685 459.190478,70.099999 458.857143,70.3 C456.590465,71.166671 454.09049,72.133328 451.357143,73.2 C448.623796,74.266672 446.22382,75.266662 444.157143,76.2 C444.357144,76.733336 444.457143,77.233331 444.457143,77.7 C444.457143,78.833339 444.057147,79.8166625 443.257143,80.65 C442.457139,81.4833375 441.35715,81.9 439.957143,81.9 C439.423807,81.9 438.957145,81.700002 438.557143,81.3 C438.157141,80.899998 437.957143,80.433336 437.957143,79.9 C437.957143,79.166663 438.340473,78.433337 439.107143,77.7 C439.873814,76.966663 440.923803,76.233337 442.257143,75.5 C441.590473,74.499995 440.640483,73.5166715 439.407143,72.55 C438.173804,71.5833285 437.023815,70.833336 435.957143,70.3 Z M443.057143,77.7 C443.057143,77.299998 443.02381,77.000001 442.957143,76.8 C441.823804,77.400003 440.94048,77.9499975 440.307143,78.45 C439.673807,78.9500025 439.357143,79.433331 439.357143,79.9 C439.357143,80.300002 439.557141,80.5 439.957143,80.5 C440.957148,80.5 441.723807,80.2166695 442.257143,79.65 C442.790479,79.0833305 443.057143,78.433337 443.057143,77.7 Z" id="Patrick-Rogers" fill="#000000"></path>
    </g>
</svg>